<svg xmlns="http://www.w3.org/2000/svg" xmlns:xlink="http://www.w3.org/1999/xlink" width="289" height="133" viewBox="0 0 289 133">
  <defs>
    <clipPath id="clip-Artboard_2">
      <rect width="289" height="133"/>
    </clipPath>
  </defs>
  <g id="Artboard_2" data-name="Artboard – 2" clip-path="url(#clip-Artboard_2)">
    <g id="HaynesEffects" transform="translate(0.5 0.5)">
      <g id="Group-2" transform="translate(1.5 1.5)">
        <g id="Group" transform="translate(0)">
          <g id="Rectangle" fill="none" stroke="#000a12" stroke-linejoin="bevel" stroke-width="7">
            <rect width="68" height="129" rx="13" stroke="none"/>
            <rect x="3.5" y="3.5" width="61" height="122" rx="9.5" fill="none"/>
          </g>
          <path id="HE" d="M20.146,49.393V33.884H30.68V49.393H44.726V5.5H30.68V21.009H20.146V5.5H6.1V49.393Zm21.42,58.524V96.681H24.36V91.355H38.405V81.172H24.36V75.261h15.1l1.756-11.237h-30.9v43.893Z" transform="translate(8.726 8.156)" fill="#000a12"/>
        </g>
        <path id="HaynesEffects-2" data-name="HaynesEffects" d="M52.632,49.907l1.58-6.964H65.8l1.639,6.964H82.245L70.891,6.013H49.179L37.825,49.907ZM63.224,31.764H56.787l2.868-12.29h.761Zm40.986,18.142V37.968L116.852,6.013H101.343l-3.921,15.45H96.9L93.033,6.013H77.524L90.165,37.968V49.907Zm30.2,0V30.945h.293a13.545,13.545,0,0,0,.234,2.165,3.365,3.365,0,0,0,.468,1.229h0l10.71,15.567h13.226V6.013H145.295V24.975H145a13.545,13.545,0,0,0-.234-2.165,3.365,3.365,0,0,0-.468-1.229h0L133.59,6.013H120.364V49.907Zm63.206,0V38.67H180.409V33.344h14.046V23.161H180.409V17.25h15.1l1.756-11.237h-30.9V49.907Zm21.127,1.053q1.814,0,4.067-.088a38.223,38.223,0,0,0,4.477-.439,22.227,22.227,0,0,0,4.214-1.083,9.488,9.488,0,0,0,3.336-2.019,12.655,12.655,0,0,0,2.809-4.623,20.971,20.971,0,0,0,1.17-7.491,17.575,17.575,0,0,0-.79-5.5,9.711,9.711,0,0,0-2.692-4.155,14.15,14.15,0,0,0-5-2.838,34.269,34.269,0,0,0-7.725-1.551h0l-5.033-.468V17.25a53.8,53.8,0,0,1,6.672-.351,69.557,69.557,0,0,1,10.476,1.053h0l1.756-11.237A74.551,74.551,0,0,0,219.62,4.96a35.341,35.341,0,0,0-7.93.761,11.763,11.763,0,0,0-5.3,2.6,10.6,10.6,0,0,0-2.985,4.858,25.719,25.719,0,0,0-.936,7.52,19.873,19.873,0,0,0,.732,5.706,9.751,9.751,0,0,0,2.458,4.155,11.886,11.886,0,0,0,4.594,2.721,31.19,31.19,0,0,0,7.14,1.4h0l6.321.527v3.511a35.226,35.226,0,0,1-3.6.322q-2.019.088-4.653.088a49.307,49.307,0,0,1-11.646-1.58h0l-1.99,11.588a75.261,75.261,0,0,0,8.135,1.346A79.506,79.506,0,0,0,218.743,50.96ZM52.134,108.431V92.161H64.073V81.685H52.134V75.774H65.127l1.756-11.237H38.088v43.893Zm33.008,0V92.161H97.081V81.685H85.142V75.774H98.134L99.89,64.538H71.1v43.893Zm50.214,0V97.194H118.149V91.868H132.2V81.685H118.149V75.774h15.1L135,64.538H104.1v43.893Zm25.048,1.053a29.882,29.882,0,0,0,11.12-1.814h0L170.47,95.848a31.262,31.262,0,0,1-10.593,1.7,26.829,26.829,0,0,1-2.838-.146,25.5,25.5,0,0,1-2.721-.439h0V78.583a2.8,2.8,0,0,1,1.463-2.809,13.561,13.561,0,0,1,5.267-.7,40.732,40.732,0,0,1,8.369.995h0L171.523,65.3a11.6,11.6,0,0,0-2.312-.732q-1.434-.322-3.043-.556t-3.277-.38q-1.668-.146-3.014-.146a29.985,29.985,0,0,0-10.154,1.463,14.2,14.2,0,0,0-6.35,4.36,16.751,16.751,0,0,0-3.248,7.2,49.094,49.094,0,0,0-.907,10.037,47.574,47.574,0,0,0,.966,10.242,16.217,16.217,0,0,0,3.365,7.14,14.294,14.294,0,0,0,6.5,4.184A33.039,33.039,0,0,0,160.4,109.484Zm37.1-1.053V75.774h10.183V64.538H173.279V75.774h10.183v32.656Zm29.2,1.053q1.814,0,4.067-.088a38.222,38.222,0,0,0,4.477-.439,22.228,22.228,0,0,0,4.214-1.083,9.488,9.488,0,0,0,3.336-2.019,12.654,12.654,0,0,0,2.809-4.623,20.971,20.971,0,0,0,1.171-7.491,17.576,17.576,0,0,0-.79-5.5,9.711,9.711,0,0,0-2.692-4.155,14.149,14.149,0,0,0-5-2.838,34.268,34.268,0,0,0-7.725-1.551h0l-5.033-.468V75.774a53.8,53.8,0,0,1,6.672-.351,69.556,69.556,0,0,1,10.476,1.053h0l1.756-11.237a74.55,74.55,0,0,0-16.855-1.756,35.34,35.34,0,0,0-7.93.761,11.763,11.763,0,0,0-5.3,2.6,10.6,10.6,0,0,0-2.985,4.857,25.719,25.719,0,0,0-.936,7.52,19.873,19.873,0,0,0,.732,5.706,9.752,9.752,0,0,0,2.458,4.155,11.886,11.886,0,0,0,4.594,2.721,31.19,31.19,0,0,0,7.14,1.4h0l6.321.527v3.511a35.228,35.228,0,0,1-3.6.322q-2.019.088-4.653.088a49.307,49.307,0,0,1-11.646-1.58h0L209.8,107.67a75.263,75.263,0,0,0,8.135,1.346A79.507,79.507,0,0,0,226.712,109.484Z" transform="translate(38.89 7.642)" fill="#000a12"/>
      </g>
    </g>
  </g>
</svg>
