<?xml version="1.0" encoding="UTF-8"?>
<svg width="148px" height="69px" viewBox="0 0 148 69" version="1.1" xmlns="http://www.w3.org/2000/svg" xmlns:xlink="http://www.w3.org/1999/xlink">
    <!-- Generator: Sketch 63.1 (92452) - https://sketch.com -->
    <title>Artboard</title>
    <desc>Created with Sketch.</desc>
    <g id="Artboard" stroke="none" stroke-width="1" fill="none" fill-rule="evenodd">
        <g id="Group-2" transform="translate(3.000000, 3.000000)">
            <g id="Group">
                <rect id="Rectangle" stroke="#000000" stroke-width="3" x="-1.5" y="-1.5" width="35" height="66" rx="3"></rect>
                <path d="M13.3,28 L13.3,20.05 L18.7,20.05 L18.7,28 L25.9,28 L25.9,5.5 L18.7,5.5 L18.7,13.45 L13.3,13.45 L13.3,5.5 L6.1,5.5 L6.1,28 L13.3,28 Z M24.28,58 L24.28,52.24 L15.46,52.24 L15.46,49.51 L22.66,49.51 L22.66,44.29 L15.46,44.29 L15.46,41.26 L23.2,41.26 L24.1,35.5 L8.26,35.5 L8.26,58 L24.28,58 Z" id="HE" fill="#000A12" fill-rule="nonzero"></path>
            </g>
            <path d="M45.415,28 L46.225,24.43 L52.165,24.43 L53.005,28 L60.595,28 L54.775,5.5 L43.645,5.5 L37.825,28 L45.415,28 Z M50.845,18.7 L47.545,18.7 L49.015,12.4 L49.405,12.4 L50.845,18.7 Z M71.855,28 L71.855,21.88 L78.335,5.5 L70.385,5.5 L68.375,13.42 L68.105,13.42 L66.125,5.5 L58.175,5.5 L64.655,21.88 L64.655,28 L71.855,28 Z M87.335,28 L87.335,18.28 L87.485,18.28 C87.505,18.74 87.545,19.11 87.605,19.39 C87.665,19.67 87.745,19.88 87.845,20.02 L87.845,20.02 L93.335,28 L100.115,28 L100.115,5.5 L92.915,5.5 L92.915,15.22 L92.765,15.22 C92.745,14.76 92.705,14.39 92.645,14.11 C92.585,13.83 92.505,13.62 92.405,13.48 L92.405,13.48 L86.915,5.5 L80.135,5.5 L80.135,28 L87.335,28 Z M119.735,28 L119.735,22.24 L110.915,22.24 L110.915,19.51 L118.115,19.51 L118.115,14.29 L110.915,14.29 L110.915,11.26 L118.655,11.26 L119.555,5.5 L103.715,5.5 L103.715,28 L119.735,28 Z M130.565,28.54 C131.185,28.54 131.88,28.525 132.65,28.495 C133.42,28.465 134.185,28.39 134.945,28.27 C135.705,28.15 136.425,27.965 137.105,27.715 C137.785,27.465 138.355,27.12 138.815,26.68 C139.375,26.14 139.855,25.35 140.255,24.31 C140.655,23.27 140.855,21.99 140.855,20.47 C140.855,19.41 140.72,18.47 140.45,17.65 C140.18,16.83 139.72,16.12 139.07,15.52 C138.42,14.92 137.565,14.435 136.505,14.065 C135.445,13.695 134.125,13.43 132.545,13.27 L132.545,13.27 L129.965,13.03 L129.965,11.26 C130.905,11.14 132.045,11.08 133.385,11.08 C134.725,11.08 136.515,11.26 138.755,11.62 L138.755,11.62 L139.655,5.86 C137.075,5.26 134.195,4.96 131.015,4.96 C129.415,4.96 128.06,5.09 126.95,5.35 C125.84,5.61 124.935,6.055 124.235,6.685 C123.535,7.315 123.025,8.145 122.705,9.175 C122.385,10.205 122.225,11.49 122.225,13.03 C122.225,14.15 122.35,15.125 122.6,15.955 C122.85,16.785 123.27,17.495 123.86,18.085 C124.45,18.675 125.235,19.14 126.215,19.48 C127.195,19.82 128.415,20.06 129.875,20.2 L129.875,20.2 L133.115,20.47 L133.115,22.27 C132.575,22.35 131.96,22.405 131.27,22.435 C130.58,22.465 129.785,22.48 128.885,22.48 C127.105,22.48 125.115,22.21 122.915,21.67 L122.915,21.67 L121.895,27.61 C123.235,27.91 124.625,28.14 126.065,28.3 C127.505,28.46 129.005,28.54 130.565,28.54 Z M45.16,58 L45.16,49.66 L51.28,49.66 L51.28,44.29 L45.16,44.29 L45.16,41.26 L51.82,41.26 L52.72,35.5 L37.96,35.5 L37.96,58 L45.16,58 Z M62.08,58 L62.08,49.66 L68.2,49.66 L68.2,44.29 L62.08,44.29 L62.08,41.26 L68.74,41.26 L69.64,35.5 L54.88,35.5 L54.88,58 L62.08,58 Z M87.82,58 L87.82,52.24 L79,52.24 L79,49.51 L86.2,49.51 L86.2,44.29 L79,44.29 L79,41.26 L86.74,41.26 L87.64,35.5 L71.8,35.5 L71.8,58 L87.82,58 Z M100.66,58.54 C102.92,58.54 104.82,58.23 106.36,57.61 L106.36,57.61 L105.82,51.55 C104.2,52.13 102.39,52.42 100.39,52.42 C99.89,52.42 99.405,52.395 98.935,52.345 C98.465,52.295 98,52.22 97.54,52.12 L97.54,52.12 L97.54,42.7 C97.54,41.98 97.79,41.5 98.29,41.26 C98.79,41.02 99.69,40.9 100.99,40.9 C102.25,40.9 103.68,41.07 105.28,41.41 L105.28,41.41 L106.36,35.89 C106.06,35.75 105.665,35.625 105.175,35.515 C104.685,35.405 104.165,35.31 103.615,35.23 C103.065,35.15 102.505,35.085 101.935,35.035 C101.365,34.985 100.85,34.96 100.39,34.96 C98.29,34.96 96.555,35.21 95.185,35.71 C93.815,36.21 92.73,36.955 91.93,37.945 C91.13,38.935 90.575,40.165 90.265,41.635 C89.955,43.105 89.8,44.82 89.8,46.78 C89.8,48.8 89.965,50.55 90.295,52.03 C90.625,53.51 91.2,54.73 92.02,55.69 C92.84,56.65 93.95,57.365 95.35,57.835 C96.75,58.305 98.52,58.54 100.66,58.54 Z M119.68,58 L119.68,41.26 L124.9,41.26 L124.9,35.5 L107.26,35.5 L107.26,41.26 L112.48,41.26 L112.48,58 L119.68,58 Z M134.65,58.54 C135.27,58.54 135.965,58.525 136.735,58.495 C137.505,58.465 138.27,58.39 139.03,58.27 C139.79,58.15 140.51,57.965 141.19,57.715 C141.87,57.465 142.44,57.12 142.9,56.68 C143.46,56.14 143.94,55.35 144.34,54.31 C144.74,53.27 144.94,51.99 144.94,50.47 C144.94,49.41 144.805,48.47 144.535,47.65 C144.265,46.83 143.805,46.12 143.155,45.52 C142.505,44.92 141.65,44.435 140.59,44.065 C139.53,43.695 138.21,43.43 136.63,43.27 L136.63,43.27 L134.05,43.03 L134.05,41.26 C134.99,41.14 136.13,41.08 137.47,41.08 C138.81,41.08 140.6,41.26 142.84,41.62 L142.84,41.62 L143.74,35.86 C141.16,35.26 138.28,34.96 135.1,34.96 C133.5,34.96 132.145,35.09 131.035,35.35 C129.925,35.61 129.02,36.055 128.32,36.685 C127.62,37.315 127.11,38.145 126.79,39.175 C126.47,40.205 126.31,41.49 126.31,43.03 C126.31,44.15 126.435,45.125 126.685,45.955 C126.935,46.785 127.355,47.495 127.945,48.085 C128.535,48.675 129.32,49.14 130.3,49.48 C131.28,49.82 132.5,50.06 133.96,50.2 L133.96,50.2 L137.2,50.47 L137.2,52.27 C136.66,52.35 136.045,52.405 135.355,52.435 C134.665,52.465 133.87,52.48 132.97,52.48 C131.19,52.48 129.2,52.21 127,51.67 L127,51.67 L125.98,57.61 C127.32,57.91 128.71,58.14 130.15,58.3 C131.59,58.46 133.09,58.54 134.65,58.54 Z" id="AYNESFFECTS" fill="#000A12" fill-rule="nonzero"></path>
        </g>
    </g>
</svg>