<?xml version="1.0" encoding="UTF-8"?>
<svg width="888px" height="342px" viewBox="0 0 888 342" version="1.1" xmlns="http://www.w3.org/2000/svg" xmlns:xlink="http://www.w3.org/1999/xlink">
    <!-- Generator: Sketch 63.1 (92452) - https://sketch.com -->
    <title>Artboard</title>
    <desc>Created with Sketch.</desc>
    <g id="Artboard" stroke="none" stroke-width="1" fill="none" fill-rule="evenodd">
        <path d="M50.5454545,162 L50.5454545,106.173333 L88.4545455,106.173333 L88.4545455,162 L139,162 L139,4 L88.4545455,4 L88.4545455,59.8266667 L50.5454545,59.8266667 L50.5454545,4 L0,4 L0,162 L50.5454545,162 Z M202.333333,162 L208.025033,136.930667 L249.764163,136.930667 L255.666667,162 L309,162 L268.104084,4 L189.895916,4 L149,162 L202.333333,162 Z M241,96 L218,96 L228.245455,52 L230.963636,52 L241,96 Z M402.357143,162 L402.357143,119.024 L448,4 L392.002976,4 L377.845238,59.616 L375.943452,59.616 L361.997024,4 L306,4 L351.642857,119.024 L351.642857,162 L402.357143,162 Z M511.810811,162 L511.810811,93.744 L512.869369,93.744 C513.010511,96.9742222 513.292793,99.5724444 513.716216,101.538667 C514.13964,103.504889 514.704204,104.979556 515.40991,105.962667 L515.40991,105.962667 L554.153153,162 L602,162 L602,4 L551.189189,4 L551.189189,72.256 L550.130631,72.256 C549.989489,69.0257778 549.707207,66.4275556 549.283784,64.4613333 C548.86036,62.4951111 548.295796,61.0204444 547.59009,60.0373333 L547.59009,60.0373333 L508.846847,4 L461,4 L461,162 L511.810811,162 Z M740,162 L740,121.552 L677.786517,121.552 L677.786517,102.381333 L728.573034,102.381333 L728.573034,65.7253333 L677.786517,65.7253333 L677.786517,44.448 L732.382022,44.448 L738.730337,4 L627,4 L627,162 L740,162 Z M815.818038,166 C820.167194,166 825.042458,165.894402 830.443829,165.683206 C835.8452,165.47201 841.211498,164.94402 846.542722,164.099237 C851.873945,163.254453 856.924578,161.952078 861.69462,160.192112 C866.464662,158.432146 870.46308,156.003393 873.689873,152.905852 C877.618143,149.104326 880.985232,143.542833 883.791139,136.221374 C886.597046,128.899915 888,119.888889 888,109.188295 C888,101.726039 887.053006,95.1085666 885.159019,89.3358779 C883.265032,83.5631891 880.038238,78.5648855 875.478639,74.3409669 C870.91904,70.1170483 864.921414,66.7027142 857.485759,64.0979644 C850.050105,61.4932146 840.790612,59.6276506 829.707278,58.5012723 L829.707278,58.5012723 L811.609177,56.8117048 L811.609177,44.351145 C818.203059,43.5063613 826.199895,43.0839695 835.599684,43.0839695 C844.999473,43.0839695 857.555907,44.351145 873.268987,46.8854962 L873.268987,46.8854962 L879.582278,6.33587786 C861.484177,2.11195929 841.281646,0 818.974684,0 C807.751055,0 798.246044,0.915182358 790.459652,2.74554707 C782.673259,4.57591179 776.324895,7.7086514 771.414557,12.1437659 C766.504219,16.5788804 762.926688,22.4219678 760.681962,29.673028 C758.437236,36.9240882 757.314873,45.9703138 757.314873,56.8117048 C757.314873,64.6963528 758.191719,71.5602205 759.945411,77.4033079 C761.699103,83.2463953 764.645306,88.2446989 768.784019,92.3982188 C772.922732,96.5517388 778.429325,99.8252757 785.303797,102.21883 C792.17827,104.612383 800.736287,106.301951 810.977848,107.287532 L810.977848,107.287532 L833.705696,109.188295 L833.705696,121.860051 C829.917722,122.42324 825.603639,122.810433 820.763449,123.021628 C815.923259,123.232824 810.346519,123.338422 804.033228,123.338422 C791.546941,123.338422 777.587553,121.437659 762.155063,117.636132 L762.155063,117.636132 L755,159.452926 C764.399789,161.564885 774.150316,163.184054 784.251582,164.310433 C794.352848,165.436811 804.875,166 815.818038,166 Z M113,338 L113,297.552 L50.7865169,297.552 L50.7865169,278.381333 L101.573034,278.381333 L101.573034,241.725333 L50.7865169,241.725333 L50.7865169,220.448 L105.382022,220.448 L111.730337,180 L0,180 L0,338 L113,338 Z M184.731707,338 L184.731707,279.434667 L227.853659,279.434667 L227.853659,241.725333 L184.731707,241.725333 L184.731707,220.448 L231.658537,220.448 L238,180 L134,180 L134,338 L184.731707,338 Z M303.731707,338 L303.731707,279.434667 L346.853659,279.434667 L346.853659,241.725333 L303.731707,241.725333 L303.731707,220.448 L350.658537,220.448 L357,180 L253,180 L253,338 L303.731707,338 Z M485,338 L485,297.552 L422.786517,297.552 L422.786517,278.381333 L473.573034,278.381333 L473.573034,241.725333 L422.786517,241.725333 L422.786517,220.448 L477.382022,220.448 L483.730337,180 L372,180 L372,338 L485,338 Z M575.728261,342 C591.695652,342 605.119565,339.817642 616,335.452926 L616,335.452926 L612.184783,292.791349 C600.73913,296.87447 587.951087,298.916031 573.820652,298.916031 C570.288043,298.916031 566.861413,298.740034 563.540761,298.388041 C560.220109,298.036047 556.934783,297.508058 553.684783,296.804071 L553.684783,296.804071 L553.684783,230.48855 C553.684783,225.419847 555.451087,222.040712 558.983696,220.351145 C562.516304,218.661578 568.875,217.816794 578.059783,217.816794 C586.961957,217.816794 597.065217,219.013571 608.369565,221.407125 L608.369565,221.407125 L616,182.547074 C613.880435,181.561493 611.089674,180.68151 607.627717,179.907125 C604.165761,179.13274 600.491848,178.463953 596.605978,177.900763 C592.720109,177.337574 588.763587,176.879983 584.736413,176.52799 C580.709239,176.175997 577.070652,176 573.820652,176 C558.983696,176 546.725543,177.759966 537.046196,181.279898 C527.366848,184.79983 519.701087,190.044529 514.048913,197.013995 C508.396739,203.983461 504.475543,212.642494 502.285326,222.991094 C500.095109,233.339695 499,245.413062 499,259.211196 C499,273.431722 500.165761,285.751484 502.497283,296.170483 C504.828804,306.589483 508.891304,315.178117 514.684783,321.936387 C520.478261,328.694656 528.320652,333.728159 538.211957,337.036896 C548.103261,340.345632 560.608696,342 575.728261,342 Z M709.306122,338 L709.306122,220.448 L746,220.448 L746,180 L622,180 L622,220.448 L658.693878,220.448 L658.693878,338 L709.306122,338 Z M814.818038,342 C819.167194,342 824.042458,341.894402 829.443829,341.683206 C834.8452,341.47201 840.211498,340.94402 845.542722,340.099237 C850.873945,339.254453 855.924578,337.952078 860.69462,336.192112 C865.464662,334.432146 869.46308,332.003393 872.689873,328.905852 C876.618143,325.104326 879.985232,319.542833 882.791139,312.221374 C885.597046,304.899915 887,295.888889 887,285.188295 C887,277.726039 886.053006,271.108567 884.159019,265.335878 C882.265032,259.563189 879.038238,254.564885 874.478639,250.340967 C869.91904,246.117048 863.921414,242.702714 856.485759,240.097964 C849.050105,237.493215 839.790612,235.627651 828.707278,234.501272 L828.707278,234.501272 L810.609177,232.811705 L810.609177,220.351145 C817.203059,219.506361 825.199895,219.083969 834.599684,219.083969 C843.999473,219.083969 856.555907,220.351145 872.268987,222.885496 L872.268987,222.885496 L878.582278,182.335878 C860.484177,178.111959 840.281646,176 817.974684,176 C806.751055,176 797.246044,176.915182 789.459652,178.745547 C781.673259,180.575912 775.324895,183.708651 770.414557,188.143766 C765.504219,192.57888 761.926688,198.421968 759.681962,205.673028 C757.437236,212.924088 756.314873,221.970314 756.314873,232.811705 C756.314873,240.696353 757.191719,247.560221 758.945411,253.403308 C760.699103,259.246395 763.645306,264.244699 767.784019,268.398219 C771.922732,272.551739 777.429325,275.825276 784.303797,278.21883 C791.17827,280.612383 799.736287,282.301951 809.977848,283.287532 L809.977848,283.287532 L832.705696,285.188295 L832.705696,297.860051 C828.917722,298.42324 824.603639,298.810433 819.763449,299.021628 C814.923259,299.232824 809.346519,299.338422 803.033228,299.338422 C790.546941,299.338422 776.587553,297.437659 761.155063,293.636132 L761.155063,293.636132 L754,335.452926 C763.399789,337.564885 773.150316,339.184054 783.251582,340.310433 C793.352848,341.436811 803.875,342 814.818038,342 Z" id="HAYNESEFFECTS" fill="#000A12" fill-rule="nonzero"></path>
    </g>
</svg>