<svg xmlns="http://www.w3.org/2000/svg" xmlns:xlink="http://www.w3.org/1999/xlink" width="550" height="301" viewBox="0 0 550 301">
  <defs>
    <clipPath id="clip-Artboard_1">
      <rect width="550" height="301"/>
    </clipPath>
  </defs>
  <g id="Artboard_1" data-name="Artboard – 1" clip-path="url(#clip-Artboard_1)">
    <g id="Group_124" data-name="Group 124" transform="translate(-60 -62)">
      <g id="Rectangle_3" data-name="Rectangle 3" transform="translate(60 65)" fill="none" stroke="#000a12" stroke-width="3">
        <rect width="550" height="298" rx="25" stroke="none"/>
        <rect x="1.5" y="1.5" width="547" height="295" rx="23.5" fill="none"/>
      </g>
      <g id="Group_116" data-name="Group 116" transform="translate(18 3)">
        <g id="Ellipse_1" data-name="Ellipse 1" transform="translate(472 240)" fill="none" stroke="#000a12" stroke-width="3">
          <circle cx="40" cy="40" r="40" stroke="none"/>
          <circle cx="40" cy="40" r="38.5" fill="none"/>
        </g>
        <g id="Ellipse_2" data-name="Ellipse 2" transform="translate(482 250)" fill="none" stroke="#000a12" stroke-width="3">
          <circle cx="30" cy="30" r="30" stroke="none"/>
          <circle cx="30" cy="30" r="28.5" fill="none"/>
        </g>
      </g>
      <g id="Group_117" data-name="Group 117" transform="translate(-362 3)">
        <g id="Ellipse_1-2" data-name="Ellipse 1" transform="translate(472 240)" fill="none" stroke="#000a12" stroke-width="3">
          <circle cx="40" cy="40" r="40" stroke="none"/>
          <circle cx="40" cy="40" r="38.5" fill="none"/>
        </g>
        <g id="Ellipse_2-2" data-name="Ellipse 2" transform="translate(482 250)" fill="none" stroke="#000a12" stroke-width="3">
          <circle cx="30" cy="30" r="30" stroke="none"/>
          <circle cx="30" cy="30" r="28.5" fill="none"/>
        </g>
      </g>
      <g id="Group_118" data-name="Group 118" transform="translate(327.819 175)">
        <g id="Intersection_1" data-name="Intersection 1" transform="translate(0.181)" fill="none">
          <path d="M0,53V.8a35.413,35.413,0,0,1,15,0V53Z" stroke="none"/>
          <path d="M 12 50 L 12 3.313405752182007 C 10.51264667510986 3.105096817016602 9.006898880004883 3 7.50039005279541 3 C 5.993713855743408 3 4.487713813781738 3.105131149291992 3 3.313512802124023 L 3 50 L 12 50 M 15 53 L -8.881784197001252e-16 53 L -8.881784197001252e-16 0.8033599853515625 C 2.423470020294189 0.2766099870204926 4.931809902191162 -3.552713678800501e-15 7.50039005279541 -3.552713678800501e-15 C 10.0689001083374 -3.552713678800501e-15 12.5767297744751 0.2765100002288818 15 0.8032500147819519 L 15 53 Z" stroke="none" fill="#b03cc5"/>
        </g>
      </g>
      <g id="Group_119" data-name="Group 119" transform="translate(-337 -37)">
        <g id="Ellipse_1-3" data-name="Ellipse 1" transform="translate(472 240)" fill="none" stroke="#000a12" stroke-width="3">
          <circle cx="15" cy="15" r="15" stroke="none"/>
          <circle cx="15" cy="15" r="13.5" fill="none"/>
        </g>
        <g id="Ellipse_2-3" data-name="Ellipse 2" transform="translate(477 245)" fill="none" stroke="#b03cc5" stroke-width="3">
          <circle cx="10" cy="10" r="10" stroke="none"/>
          <circle cx="10" cy="10" r="8.5" fill="none"/>
        </g>
      </g>
      <g id="Group_122" data-name="Group 122" transform="translate(16 -3)">
        <g id="Group_120" data-name="Group 120" transform="translate(45 -34)">
          <g id="Ellipse_1-4" data-name="Ellipse 1" transform="translate(472 240)" fill="none" stroke="#000a12" stroke-width="3">
            <circle cx="15" cy="15" r="15" stroke="none"/>
            <circle cx="15" cy="15" r="13.5" fill="none"/>
          </g>
          <g id="Ellipse_2-4" data-name="Ellipse 2" transform="translate(477 245)" fill="none" stroke="#b83fce" stroke-width="3">
            <circle cx="10" cy="10" r="10" stroke="none"/>
            <circle cx="10" cy="10" r="8.5" fill="none"/>
          </g>
        </g>
        <g id="Group_121" data-name="Group 121" transform="translate(10 -34)">
          <g id="Ellipse_1-5" data-name="Ellipse 1" transform="translate(472 240)" fill="none" stroke="#000a12" stroke-width="3">
            <circle cx="15" cy="15" r="15" stroke="none"/>
            <circle cx="15" cy="15" r="13.5" fill="none"/>
          </g>
          <g id="Ellipse_2-5" data-name="Ellipse 2" transform="translate(477 245)" fill="none" stroke="#b83fce" stroke-width="3">
            <circle cx="10" cy="10" r="10" stroke="none"/>
            <circle cx="10" cy="10" r="8.5" fill="none"/>
          </g>
        </g>
      </g>
      <g id="Ellipse_4" data-name="Ellipse 4" transform="translate(296 175)" fill="none" stroke="#b03cc5" stroke-width="3">
        <circle cx="39.5" cy="39.5" r="39.5" stroke="none"/>
        <circle cx="39.5" cy="39.5" r="38" fill="none"/>
      </g>
      <g id="Group_123" data-name="Group 123" transform="translate(-4 2)">
        <g id="Rectangle_5" data-name="Rectangle 5" transform="translate(115 60)" fill="none" stroke="#000a12" stroke-width="3">
          <rect width="75" height="4" stroke="none"/>
          <rect x="1.5" y="1.5" width="72" height="1" fill="none"/>
        </g>
        <g id="Rectangle_6" data-name="Rectangle 6" transform="translate(239 60)" fill="none" stroke="#000a12" stroke-width="3">
          <rect width="75" height="4" stroke="none"/>
          <rect x="1.5" y="1.5" width="72" height="1" fill="none"/>
        </g>
        <g id="Rectangle_7" data-name="Rectangle 7" transform="translate(363 60)" fill="none" stroke="#000a12" stroke-width="3">
          <rect width="75" height="4" stroke="none"/>
          <rect x="1.5" y="1.5" width="72" height="1" fill="none"/>
        </g>
        <g id="Rectangle_8" data-name="Rectangle 8" transform="translate(488 60)" fill="none" stroke="#000a12" stroke-width="3">
          <rect width="75" height="4" stroke="none"/>
          <rect x="1.5" y="1.5" width="72" height="1" fill="none"/>
        </g>
      </g>
      <g id="Group_125" data-name="Group 125" transform="translate(431.941 -180.617)">
        <rect id="Rectangle" width="22.058" height="28.676" rx="3" stroke-width="3" fill="none" stroke="#000a12" transform="translate(67.059 374.117) rotate(-90)"/>
        <g id="Rectangle_1" data-name="Rectangle 1" transform="translate(70.303 355.303)" fill="#000a12" stroke="#000" stroke-width="3">
          <rect width="9.926" height="15.882" rx="2" stroke="none"/>
          <rect x="1.5" y="1.5" width="6.926" height="12.882" rx="0.5" fill="none"/>
        </g>
        <rect id="Rectangle-2" data-name="Rectangle" width="22.058" height="28.676" rx="3" transform="translate(101.249 374.117) rotate(-90)" fill="none" stroke="#000a12" stroke-width="3"/>
        <g id="Rectangle_2" data-name="Rectangle 2" transform="translate(116.625 355.303)" fill="#000a12" stroke="#000" stroke-width="3">
          <rect width="9.926" height="15.882" rx="2" stroke="none"/>
          <rect x="1.5" y="1.5" width="6.926" height="12.882" rx="0.5" fill="none"/>
        </g>
      </g>
      <g id="Group_59" data-name="Group 59" transform="translate(-129 -429)">
        <rect id="Rectangle-3" data-name="Rectangle" width="23" height="23" rx="3" transform="translate(268 599)" fill="none" stroke="#000a12" stroke-width="3"/>
        <text id="B" transform="translate(274 617)" fill="#000a12" font-size="17" font-family="BlackHanSans-Regular, Black Han Sans"><tspan x="0" y="0">B</tspan></text>
      </g>
    </g>
  </g>
</svg>
